<mxfile host="app.diagrams.net" modified="2023-01-31T22:37:38.795Z" agent="5.0 (Windows NT 10.0; Win64; x64) AppleWebKit/537.36 (KHTML, like Gecko) Chrome/109.0.0.0 Safari/537.36" etag="1YOZxkdQ8Qqej1Yf1b0I" version="20.8.10" type="github">
  <diagram id="C5RBs43oDa-KdzZeNtuy" name="Page-1">
    <mxGraphModel dx="1760" dy="1190" grid="1" gridSize="10" guides="1" tooltips="1" connect="1" arrows="1" fold="1" page="1" pageScale="1" pageWidth="827" pageHeight="1169" math="0" shadow="0">
      <root>
        <mxCell id="WIyWlLk6GJQsqaUBKTNV-0" />
        <mxCell id="WIyWlLk6GJQsqaUBKTNV-1" parent="WIyWlLk6GJQsqaUBKTNV-0" />
        <mxCell id="WIyWlLk6GJQsqaUBKTNV-2" value="" style="rounded=0;html=1;jettySize=auto;orthogonalLoop=1;fontSize=11;endArrow=block;endFill=0;endSize=8;strokeWidth=1;shadow=0;labelBackgroundColor=none;edgeStyle=orthogonalEdgeStyle;" parent="WIyWlLk6GJQsqaUBKTNV-1" source="WIyWlLk6GJQsqaUBKTNV-3" target="WIyWlLk6GJQsqaUBKTNV-6" edge="1">
          <mxGeometry relative="1" as="geometry" />
        </mxCell>
        <mxCell id="WIyWlLk6GJQsqaUBKTNV-3" value="InÃ­cio" style="rounded=1;whiteSpace=wrap;html=1;fontSize=12;glass=0;strokeWidth=1;shadow=0;" parent="WIyWlLk6GJQsqaUBKTNV-1" vertex="1">
          <mxGeometry x="160" y="80" width="120" height="40" as="geometry" />
        </mxCell>
        <mxCell id="WIyWlLk6GJQsqaUBKTNV-4" value="" style="rounded=0;html=1;jettySize=auto;orthogonalLoop=1;fontSize=11;endArrow=block;endFill=0;endSize=8;strokeWidth=1;shadow=0;labelBackgroundColor=none;edgeStyle=orthogonalEdgeStyle;entryX=1;entryY=0.5;entryDx=0;entryDy=0;" parent="WIyWlLk6GJQsqaUBKTNV-1" source="WIyWlLk6GJQsqaUBKTNV-6" target="WIyWlLk6GJQsqaUBKTNV-12" edge="1">
          <mxGeometry y="30" relative="1" as="geometry">
            <mxPoint as="offset" />
            <Array as="points">
              <mxPoint x="390" y="210" />
              <mxPoint x="390" y="300" />
            </Array>
          </mxGeometry>
        </mxCell>
        <mxCell id="WIyWlLk6GJQsqaUBKTNV-5" value="" style="edgeStyle=orthogonalEdgeStyle;rounded=0;html=1;jettySize=auto;orthogonalLoop=1;fontSize=11;endArrow=block;endFill=0;endSize=8;strokeWidth=1;shadow=0;labelBackgroundColor=none;" parent="WIyWlLk6GJQsqaUBKTNV-1" source="WIyWlLk6GJQsqaUBKTNV-6" target="WIyWlLk6GJQsqaUBKTNV-7" edge="1">
          <mxGeometry y="10" relative="1" as="geometry">
            <mxPoint as="offset" />
          </mxGeometry>
        </mxCell>
        <mxCell id="WIyWlLk6GJQsqaUBKTNV-6" value="Saldo" style="rhombus;whiteSpace=wrap;html=1;shadow=0;fontFamily=Helvetica;fontSize=12;align=center;strokeWidth=1;spacing=6;spacingTop=-4;" parent="WIyWlLk6GJQsqaUBKTNV-1" vertex="1">
          <mxGeometry x="170" y="170" width="100" height="80" as="geometry" />
        </mxCell>
        <mxCell id="WIyWlLk6GJQsqaUBKTNV-7" value="&quot;Saldo inicial:&quot; + saldo" style="rounded=1;whiteSpace=wrap;html=1;fontSize=12;glass=0;strokeWidth=1;shadow=0;" parent="WIyWlLk6GJQsqaUBKTNV-1" vertex="1">
          <mxGeometry x="320" y="190" width="120" height="40" as="geometry" />
        </mxCell>
        <mxCell id="WIyWlLk6GJQsqaUBKTNV-8" value="V" style="rounded=0;html=1;jettySize=auto;orthogonalLoop=1;fontSize=23;endArrow=block;endFill=0;endSize=8;strokeWidth=1;shadow=0;labelBackgroundColor=none;edgeStyle=orthogonalEdgeStyle;" parent="WIyWlLk6GJQsqaUBKTNV-1" source="WIyWlLk6GJQsqaUBKTNV-10" edge="1">
          <mxGeometry x="0.2" y="-30" relative="1" as="geometry">
            <mxPoint as="offset" />
            <mxPoint x="220" y="460" as="targetPoint" />
          </mxGeometry>
        </mxCell>
        <mxCell id="ufOwLkB2t15zD5RIVDhW-48" style="edgeStyle=orthogonalEdgeStyle;rounded=0;orthogonalLoop=1;jettySize=auto;html=1;exitX=1;exitY=0.5;exitDx=0;exitDy=0;labelBorderColor=none;strokeWidth=1;fontSize=23;entryX=1;entryY=0.5;entryDx=0;entryDy=0;" edge="1" parent="WIyWlLk6GJQsqaUBKTNV-1" source="WIyWlLk6GJQsqaUBKTNV-10" target="ufOwLkB2t15zD5RIVDhW-46">
          <mxGeometry relative="1" as="geometry">
            <mxPoint x="640" y="1280" as="targetPoint" />
            <Array as="points">
              <mxPoint x="650" y="390" />
              <mxPoint x="650" y="1280" />
            </Array>
          </mxGeometry>
        </mxCell>
        <mxCell id="ufOwLkB2t15zD5RIVDhW-49" value="F" style="edgeLabel;html=1;align=center;verticalAlign=middle;resizable=0;points=[];fontSize=23;" vertex="1" connectable="0" parent="ufOwLkB2t15zD5RIVDhW-48">
          <mxGeometry x="0.0216" y="3" relative="1" as="geometry">
            <mxPoint x="-213" y="-488" as="offset" />
          </mxGeometry>
        </mxCell>
        <mxCell id="WIyWlLk6GJQsqaUBKTNV-10" value="encerrar = &#39;n&#39;" style="rhombus;whiteSpace=wrap;html=1;shadow=0;fontFamily=Helvetica;fontSize=12;align=center;strokeWidth=1;spacing=6;spacingTop=-4;" parent="WIyWlLk6GJQsqaUBKTNV-1" vertex="1">
          <mxGeometry x="170" y="350" width="100" height="80" as="geometry" />
        </mxCell>
        <mxCell id="ufOwLkB2t15zD5RIVDhW-11" style="edgeStyle=orthogonalEdgeStyle;rounded=0;orthogonalLoop=1;jettySize=auto;html=1;entryX=0.5;entryY=0;entryDx=0;entryDy=0;strokeWidth=1;fontSize=23;labelPosition=left;verticalLabelPosition=middle;align=left;verticalAlign=middle;labelBorderColor=none;exitX=0.5;exitY=1;exitDx=0;exitDy=0;" edge="1" parent="WIyWlLk6GJQsqaUBKTNV-1" source="ufOwLkB2t15zD5RIVDhW-4" target="ufOwLkB2t15zD5RIVDhW-5">
          <mxGeometry relative="1" as="geometry">
            <mxPoint x="160" y="630" as="sourcePoint" />
            <Array as="points">
              <mxPoint x="219" y="590" />
            </Array>
          </mxGeometry>
        </mxCell>
        <mxCell id="ufOwLkB2t15zD5RIVDhW-13" value="" style="edgeStyle=orthogonalEdgeStyle;rounded=0;orthogonalLoop=1;jettySize=auto;html=1;labelBorderColor=none;strokeWidth=1;fontSize=23;" edge="1" parent="WIyWlLk6GJQsqaUBKTNV-1" source="WIyWlLk6GJQsqaUBKTNV-11" target="ufOwLkB2t15zD5RIVDhW-4">
          <mxGeometry relative="1" as="geometry" />
        </mxCell>
        <mxCell id="WIyWlLk6GJQsqaUBKTNV-11" value="tipo de entrada" style="rounded=1;whiteSpace=wrap;html=1;fontSize=12;glass=0;strokeWidth=1;shadow=0;" parent="WIyWlLk6GJQsqaUBKTNV-1" vertex="1">
          <mxGeometry x="160" y="470" width="120" height="40" as="geometry" />
        </mxCell>
        <mxCell id="ufOwLkB2t15zD5RIVDhW-3" value="" style="edgeStyle=orthogonalEdgeStyle;rounded=0;orthogonalLoop=1;jettySize=auto;html=1;" edge="1" parent="WIyWlLk6GJQsqaUBKTNV-1" source="WIyWlLk6GJQsqaUBKTNV-12">
          <mxGeometry relative="1" as="geometry">
            <mxPoint x="220" y="350" as="targetPoint" />
          </mxGeometry>
        </mxCell>
        <mxCell id="WIyWlLk6GJQsqaUBKTNV-12" value="encerrar = &#39;n&#39;" style="rounded=1;whiteSpace=wrap;html=1;fontSize=12;glass=0;strokeWidth=1;shadow=0;" parent="WIyWlLk6GJQsqaUBKTNV-1" vertex="1">
          <mxGeometry x="160" y="280" width="120" height="40" as="geometry" />
        </mxCell>
        <mxCell id="ufOwLkB2t15zD5RIVDhW-4" value="quantidade" style="rounded=1;whiteSpace=wrap;html=1;fontSize=12;glass=0;strokeWidth=1;shadow=0;" vertex="1" parent="WIyWlLk6GJQsqaUBKTNV-1">
          <mxGeometry x="160" y="550" width="120" height="40" as="geometry" />
        </mxCell>
        <mxCell id="ufOwLkB2t15zD5RIVDhW-14" style="edgeStyle=orthogonalEdgeStyle;rounded=0;orthogonalLoop=1;jettySize=auto;html=1;entryX=0;entryY=0.5;entryDx=0;entryDy=0;labelBorderColor=none;strokeWidth=1;fontSize=23;" edge="1" parent="WIyWlLk6GJQsqaUBKTNV-1" source="ufOwLkB2t15zD5RIVDhW-5" target="ufOwLkB2t15zD5RIVDhW-6">
          <mxGeometry relative="1" as="geometry" />
        </mxCell>
        <mxCell id="ufOwLkB2t15zD5RIVDhW-21" value="V" style="edgeLabel;html=1;align=center;verticalAlign=middle;resizable=0;points=[];fontSize=23;" vertex="1" connectable="0" parent="ufOwLkB2t15zD5RIVDhW-14">
          <mxGeometry x="-0.1333" relative="1" as="geometry">
            <mxPoint y="-20" as="offset" />
          </mxGeometry>
        </mxCell>
        <mxCell id="ufOwLkB2t15zD5RIVDhW-19" style="edgeStyle=orthogonalEdgeStyle;rounded=0;orthogonalLoop=1;jettySize=auto;html=1;entryX=0.5;entryY=0;entryDx=0;entryDy=0;labelBorderColor=none;strokeWidth=1;fontSize=23;" edge="1" parent="WIyWlLk6GJQsqaUBKTNV-1" source="ufOwLkB2t15zD5RIVDhW-5" target="ufOwLkB2t15zD5RIVDhW-17">
          <mxGeometry relative="1" as="geometry" />
        </mxCell>
        <mxCell id="ufOwLkB2t15zD5RIVDhW-5" value="tipo entrada = 1" style="rhombus;whiteSpace=wrap;html=1;shadow=0;fontFamily=Helvetica;fontSize=12;align=center;strokeWidth=1;spacing=6;spacingTop=-4;" vertex="1" parent="WIyWlLk6GJQsqaUBKTNV-1">
          <mxGeometry x="167.5" y="630" width="102.5" height="80" as="geometry" />
        </mxCell>
        <mxCell id="ufOwLkB2t15zD5RIVDhW-15" style="edgeStyle=orthogonalEdgeStyle;rounded=0;orthogonalLoop=1;jettySize=auto;html=1;exitX=1;exitY=0.5;exitDx=0;exitDy=0;entryX=0;entryY=0.5;entryDx=0;entryDy=0;labelBorderColor=none;strokeWidth=1;fontSize=23;" edge="1" parent="WIyWlLk6GJQsqaUBKTNV-1" source="ufOwLkB2t15zD5RIVDhW-6" target="ufOwLkB2t15zD5RIVDhW-7">
          <mxGeometry relative="1" as="geometry" />
        </mxCell>
        <mxCell id="ufOwLkB2t15zD5RIVDhW-6" value="saldo = saldo + quantidade" style="rounded=1;whiteSpace=wrap;html=1;fontSize=12;glass=0;strokeWidth=1;shadow=0;" vertex="1" parent="WIyWlLk6GJQsqaUBKTNV-1">
          <mxGeometry x="320" y="650" width="120" height="40" as="geometry" />
        </mxCell>
        <mxCell id="ufOwLkB2t15zD5RIVDhW-20" style="edgeStyle=orthogonalEdgeStyle;rounded=0;orthogonalLoop=1;jettySize=auto;html=1;labelBorderColor=none;strokeWidth=1;fontSize=23;" edge="1" parent="WIyWlLk6GJQsqaUBKTNV-1" source="ufOwLkB2t15zD5RIVDhW-7">
          <mxGeometry relative="1" as="geometry">
            <mxPoint x="250" y="730" as="targetPoint" />
            <Array as="points">
              <mxPoint x="550" y="730" />
              <mxPoint x="260" y="730" />
            </Array>
          </mxGeometry>
        </mxCell>
        <mxCell id="ufOwLkB2t15zD5RIVDhW-7" value="&quot;Entrada: &quot; + quantidade" style="rounded=1;whiteSpace=wrap;html=1;fontSize=12;glass=0;strokeWidth=1;shadow=0;" vertex="1" parent="WIyWlLk6GJQsqaUBKTNV-1">
          <mxGeometry x="490" y="650" width="120" height="40" as="geometry" />
        </mxCell>
        <mxCell id="ufOwLkB2t15zD5RIVDhW-16" value="F" style="edgeLabel;html=1;align=center;verticalAlign=middle;resizable=0;points=[];fontSize=23;" vertex="1" connectable="0" parent="WIyWlLk6GJQsqaUBKTNV-1">
          <mxGeometry x="208.75861734877708" y="630.0042822827083" as="geometry">
            <mxPoint x="-10" y="101" as="offset" />
          </mxGeometry>
        </mxCell>
        <mxCell id="ufOwLkB2t15zD5RIVDhW-38" style="edgeStyle=orthogonalEdgeStyle;rounded=0;orthogonalLoop=1;jettySize=auto;html=1;entryX=0.5;entryY=0;entryDx=0;entryDy=0;labelBorderColor=none;strokeWidth=1;fontSize=23;" edge="1" parent="WIyWlLk6GJQsqaUBKTNV-1" source="ufOwLkB2t15zD5RIVDhW-17" target="ufOwLkB2t15zD5RIVDhW-35">
          <mxGeometry relative="1" as="geometry">
            <Array as="points">
              <mxPoint x="219" y="900" />
              <mxPoint x="219" y="900" />
            </Array>
          </mxGeometry>
        </mxCell>
        <mxCell id="ufOwLkB2t15zD5RIVDhW-39" value="F" style="edgeLabel;html=1;align=center;verticalAlign=middle;resizable=0;points=[];fontSize=23;" vertex="1" connectable="0" parent="ufOwLkB2t15zD5RIVDhW-38">
          <mxGeometry x="-0.1649" relative="1" as="geometry">
            <mxPoint x="-29" y="7" as="offset" />
          </mxGeometry>
        </mxCell>
        <mxCell id="ufOwLkB2t15zD5RIVDhW-17" value="tipo entrada = 2" style="rhombus;whiteSpace=wrap;html=1;shadow=0;fontFamily=Helvetica;fontSize=12;align=center;strokeWidth=1;spacing=6;spacingTop=-4;" vertex="1" parent="WIyWlLk6GJQsqaUBKTNV-1">
          <mxGeometry x="167.5" y="750" width="102.5" height="80" as="geometry" />
        </mxCell>
        <mxCell id="ufOwLkB2t15zD5RIVDhW-33" style="edgeStyle=orthogonalEdgeStyle;rounded=0;orthogonalLoop=1;jettySize=auto;html=1;entryX=0.5;entryY=0;entryDx=0;entryDy=0;labelBorderColor=none;strokeWidth=1;fontSize=23;" edge="1" parent="WIyWlLk6GJQsqaUBKTNV-1" source="ufOwLkB2t15zD5RIVDhW-22" target="ufOwLkB2t15zD5RIVDhW-25">
          <mxGeometry relative="1" as="geometry" />
        </mxCell>
        <mxCell id="ufOwLkB2t15zD5RIVDhW-34" value="F" style="edgeLabel;html=1;align=center;verticalAlign=middle;resizable=0;points=[];fontSize=23;" vertex="1" connectable="0" parent="ufOwLkB2t15zD5RIVDhW-33">
          <mxGeometry x="-0.2914" relative="1" as="geometry">
            <mxPoint x="-20" y="9" as="offset" />
          </mxGeometry>
        </mxCell>
        <mxCell id="ufOwLkB2t15zD5RIVDhW-22" value="tipo entrada = 2" style="rhombus;whiteSpace=wrap;html=1;shadow=0;fontFamily=Helvetica;fontSize=12;align=center;strokeWidth=1;spacing=6;spacingTop=-4;" vertex="1" parent="WIyWlLk6GJQsqaUBKTNV-1">
          <mxGeometry x="328.75" y="750" width="102.5" height="80" as="geometry" />
        </mxCell>
        <mxCell id="ufOwLkB2t15zD5RIVDhW-32" style="edgeStyle=orthogonalEdgeStyle;rounded=0;orthogonalLoop=1;jettySize=auto;html=1;entryX=0.5;entryY=0;entryDx=0;entryDy=0;labelBorderColor=none;strokeWidth=1;fontSize=23;" edge="1" parent="WIyWlLk6GJQsqaUBKTNV-1" source="ufOwLkB2t15zD5RIVDhW-23" target="ufOwLkB2t15zD5RIVDhW-24">
          <mxGeometry relative="1" as="geometry" />
        </mxCell>
        <mxCell id="ufOwLkB2t15zD5RIVDhW-23" value="saldo = saldo + quantidade" style="rounded=1;whiteSpace=wrap;html=1;fontSize=12;glass=0;strokeWidth=1;shadow=0;" vertex="1" parent="WIyWlLk6GJQsqaUBKTNV-1">
          <mxGeometry x="490" y="770" width="120" height="40" as="geometry" />
        </mxCell>
        <mxCell id="ufOwLkB2t15zD5RIVDhW-41" style="edgeStyle=orthogonalEdgeStyle;rounded=0;orthogonalLoop=1;jettySize=auto;html=1;labelBorderColor=none;strokeWidth=1;fontSize=23;" edge="1" parent="WIyWlLk6GJQsqaUBKTNV-1" source="ufOwLkB2t15zD5RIVDhW-24">
          <mxGeometry relative="1" as="geometry">
            <mxPoint x="230" y="960" as="targetPoint" />
            <Array as="points">
              <mxPoint x="550" y="960" />
            </Array>
          </mxGeometry>
        </mxCell>
        <mxCell id="ufOwLkB2t15zD5RIVDhW-24" value="&quot;SaÃ­da: &quot; + quantidade" style="rounded=1;whiteSpace=wrap;html=1;fontSize=12;glass=0;strokeWidth=1;shadow=0;" vertex="1" parent="WIyWlLk6GJQsqaUBKTNV-1">
          <mxGeometry x="490" y="890" width="120" height="40" as="geometry" />
        </mxCell>
        <mxCell id="ufOwLkB2t15zD5RIVDhW-40" style="edgeStyle=orthogonalEdgeStyle;rounded=0;orthogonalLoop=1;jettySize=auto;html=1;exitX=0.5;exitY=1;exitDx=0;exitDy=0;labelBorderColor=none;strokeWidth=1;fontSize=23;" edge="1" parent="WIyWlLk6GJQsqaUBKTNV-1" source="ufOwLkB2t15zD5RIVDhW-25">
          <mxGeometry relative="1" as="geometry">
            <mxPoint x="230" y="950" as="targetPoint" />
            <Array as="points">
              <mxPoint x="380" y="950" />
            </Array>
          </mxGeometry>
        </mxCell>
        <mxCell id="ufOwLkB2t15zD5RIVDhW-25" value="&quot;Saldo insuficiente&quot;" style="rounded=1;whiteSpace=wrap;html=1;fontSize=12;glass=0;strokeWidth=1;shadow=0;" vertex="1" parent="WIyWlLk6GJQsqaUBKTNV-1">
          <mxGeometry x="320" y="890" width="120" height="40" as="geometry" />
        </mxCell>
        <mxCell id="ufOwLkB2t15zD5RIVDhW-28" style="edgeStyle=orthogonalEdgeStyle;rounded=0;orthogonalLoop=1;jettySize=auto;html=1;entryX=0;entryY=0.5;entryDx=0;entryDy=0;labelBorderColor=none;strokeWidth=1;fontSize=23;exitX=1;exitY=0.5;exitDx=0;exitDy=0;" edge="1" parent="WIyWlLk6GJQsqaUBKTNV-1" source="ufOwLkB2t15zD5RIVDhW-17">
          <mxGeometry relative="1" as="geometry">
            <mxPoint x="279.9999999999999" y="789.6600000000001" as="sourcePoint" />
            <mxPoint x="329.9999999999999" y="789.6600000000001" as="targetPoint" />
          </mxGeometry>
        </mxCell>
        <mxCell id="ufOwLkB2t15zD5RIVDhW-29" value="V" style="edgeLabel;html=1;align=center;verticalAlign=middle;resizable=0;points=[];fontSize=23;" vertex="1" connectable="0" parent="ufOwLkB2t15zD5RIVDhW-28">
          <mxGeometry x="-0.1333" relative="1" as="geometry">
            <mxPoint y="-20" as="offset" />
          </mxGeometry>
        </mxCell>
        <mxCell id="ufOwLkB2t15zD5RIVDhW-30" style="edgeStyle=orthogonalEdgeStyle;rounded=0;orthogonalLoop=1;jettySize=auto;html=1;entryX=0;entryY=0.5;entryDx=0;entryDy=0;labelBorderColor=none;strokeWidth=1;fontSize=23;exitX=1;exitY=0.5;exitDx=0;exitDy=0;" edge="1" parent="WIyWlLk6GJQsqaUBKTNV-1">
          <mxGeometry relative="1" as="geometry">
            <mxPoint x="429.9999999999999" y="790" as="sourcePoint" />
            <mxPoint x="489.9999999999999" y="789.6600000000001" as="targetPoint" />
            <Array as="points">
              <mxPoint x="478.75" y="789.72" />
              <mxPoint x="478.75" y="789.72" />
            </Array>
          </mxGeometry>
        </mxCell>
        <mxCell id="ufOwLkB2t15zD5RIVDhW-31" value="V" style="edgeLabel;html=1;align=center;verticalAlign=middle;resizable=0;points=[];fontSize=23;" vertex="1" connectable="0" parent="ufOwLkB2t15zD5RIVDhW-30">
          <mxGeometry x="-0.1333" relative="1" as="geometry">
            <mxPoint x="4" y="-20" as="offset" />
          </mxGeometry>
        </mxCell>
        <mxCell id="ufOwLkB2t15zD5RIVDhW-43" style="edgeStyle=orthogonalEdgeStyle;rounded=0;orthogonalLoop=1;jettySize=auto;html=1;labelBorderColor=none;strokeWidth=1;fontSize=23;" edge="1" parent="WIyWlLk6GJQsqaUBKTNV-1" source="ufOwLkB2t15zD5RIVDhW-35">
          <mxGeometry relative="1" as="geometry">
            <mxPoint x="218.7499999999999" y="1050" as="targetPoint" />
          </mxGeometry>
        </mxCell>
        <mxCell id="ufOwLkB2t15zD5RIVDhW-35" value="saldo" style="rounded=1;whiteSpace=wrap;html=1;fontSize=12;glass=0;strokeWidth=1;shadow=0;" vertex="1" parent="WIyWlLk6GJQsqaUBKTNV-1">
          <mxGeometry x="158.75" y="980" width="120" height="40" as="geometry" />
        </mxCell>
        <mxCell id="ufOwLkB2t15zD5RIVDhW-44" style="edgeStyle=orthogonalEdgeStyle;rounded=0;orthogonalLoop=1;jettySize=auto;html=1;labelBorderColor=none;strokeWidth=1;fontSize=23;entryX=0;entryY=0.5;entryDx=0;entryDy=0;" edge="1" parent="WIyWlLk6GJQsqaUBKTNV-1" source="ufOwLkB2t15zD5RIVDhW-42" target="WIyWlLk6GJQsqaUBKTNV-10">
          <mxGeometry relative="1" as="geometry">
            <mxPoint x="120" y="390" as="targetPoint" />
            <Array as="points">
              <mxPoint x="90" y="1080" />
              <mxPoint x="90" y="390" />
            </Array>
          </mxGeometry>
        </mxCell>
        <mxCell id="ufOwLkB2t15zD5RIVDhW-42" value="encerrar ? (s/n)" style="rounded=1;whiteSpace=wrap;html=1;fontSize=12;glass=0;strokeWidth=1;shadow=0;" vertex="1" parent="WIyWlLk6GJQsqaUBKTNV-1">
          <mxGeometry x="158.75" y="1060" width="120" height="40" as="geometry" />
        </mxCell>
        <mxCell id="ufOwLkB2t15zD5RIVDhW-47" style="edgeStyle=orthogonalEdgeStyle;rounded=0;orthogonalLoop=1;jettySize=auto;html=1;entryX=0.5;entryY=0;entryDx=0;entryDy=0;labelBorderColor=none;strokeWidth=1;fontSize=23;" edge="1" parent="WIyWlLk6GJQsqaUBKTNV-1" source="ufOwLkB2t15zD5RIVDhW-45" target="ufOwLkB2t15zD5RIVDhW-46">
          <mxGeometry relative="1" as="geometry" />
        </mxCell>
        <mxCell id="ufOwLkB2t15zD5RIVDhW-45" value="&quot;Sistema encerrado&quot;" style="rhombus;whiteSpace=wrap;html=1;shadow=0;fontFamily=Helvetica;fontSize=12;align=center;strokeWidth=1;spacing=6;spacingTop=-4;" vertex="1" parent="WIyWlLk6GJQsqaUBKTNV-1">
          <mxGeometry x="167.5" y="1140" width="102.5" height="80" as="geometry" />
        </mxCell>
        <mxCell id="ufOwLkB2t15zD5RIVDhW-46" value="Fim" style="rounded=1;whiteSpace=wrap;html=1;fontSize=12;glass=0;strokeWidth=1;shadow=0;" vertex="1" parent="WIyWlLk6GJQsqaUBKTNV-1">
          <mxGeometry x="158.75" y="1260" width="120" height="40" as="geometry" />
        </mxCell>
      </root>
    </mxGraphModel>
  </diagram>
</mxfile>
